# xmcd CD database file
#
# Track frame offsets:
#	150
#	12030
#	25077
#	37207
#	49567
#	63362
#	77130
#	91952
#	104687
#	118485
#	131042
#	142142
#	154950
#	167935
#	181187
#	195405
#	205365
#	214875
#	223505
#	232120
#	244757
#	259455
#	270750
#	281137
#
# Disc length: 3883 seconds
#
# Revision: 1
# Processed by: cddbd v1.5.2PL0 Copyright (c) Steve Scherf et al.
# Submitted via: CDex 1.70beta2
#
DISCID=710f2918
DTITLE=Andrews Sisters - The Magic Of
DYEAR=2004
DGENRE=Jazz
TTITLE0=Boogie Woogie Bugle Boy
TTITLE1=(I'll Be With You) In Apple Blossom Time
TTITLE2=Beat Me Daddy, Eight To The Bar
TTITLE3=Shoo-Shoo Baby
TTITLE4=A Rum And Coca-Cola
TTITLE5=Don't Sit Under The Apple Tree
TTITLE6=Hold Tight, Hold Tight
TTITLE7=Beer Barrel Polka (Skoda Lasky)
TTITLE8=Bei Mir Bist Du Schon
TTITLE9=Ti-Pi-Tin
TTITLE10=Crazy Arms
TTITLE11=I Want To Linger
TTITLE12=Aurora
TTITLE13=Ferry Boat Serenade
TTITLE14=Tulip Time
TTITLE15=By His Word
TTITLE16=Melancholy Moon
TTITLE17=Proper Cup Of Coffee
TTITLE18=E-Ma-Ma
TTITLE19=Begin The Beguine
TTITLE20=Well Allright! (Tonight's The Night)
TTITLE21=I've Got An Invitation To Dance
TTITLE22=Alone Again
TTITLE23=One Mistake
EXTD=YEAR: 2004
EXTT0=
EXTT1=
EXTT2=
EXTT3=
EXTT4=
EXTT5=
EXTT6=
EXTT7=
EXTT8=
EXTT9=
EXTT10=
EXTT11=
EXTT12=
EXTT13=
EXTT14=
EXTT15=
EXTT16=
EXTT17=
EXTT18=
EXTT19=
EXTT20=
EXTT21=
EXTT22=
EXTT23=
PLAYORDER=
